<?xml version="1.0" encoding="UTF-8"?>
<svg width="924px" height="226px" viewBox="0 0 924 226" version="1.1" xmlns="http://www.w3.org/2000/svg" xmlns:xlink="http://www.w3.org/1999/xlink">
    <title>LinkedIn-Logo.wine 2</title>
    <g id="Page-1" stroke="none" stroke-width="1" fill="none" fill-rule="evenodd">
        <g id="LinkedIn-Logo.wine-2" transform="translate(0.000000, -0.001487)" fill="#000000" fill-rule="nonzero">
            <g id="LinkedIn-Logo.wine">
                <path d="M910.10398,210.872287 C911.250707,210.883744 912.350837,210.419134 913.142212,209.58917 C913.933588,208.759207 914.345336,207.63822 914.279339,206.493336 C914.279339,203.387698 912.405603,201.903893 908.561513,201.903893 L902.350235,201.903893 L902.350235,218.163637 L904.686366,218.163637 L904.686366,211.075879 L907.557356,211.075879 L907.62292,211.162147 L912.077786,218.163637 L914.5761,218.163637 L909.783064,210.917146 L910.10398,210.872287 Z M907.402074,209.243552 L904.693267,209.243552 L904.693267,203.746571 L908.126723,203.746571 C909.900388,203.746571 911.922504,204.036431 911.922504,206.358759 C911.922504,209.029608 909.876233,209.243552 907.388271,209.243552 M0,33.0848217 L34.4829421,33.0848217 L34.4829421,158.690655 L98.3210716,158.690655 L98.3210716,190.5131 L0,190.5131 L0,33.0848217 Z M113.566307,83.7722965 L146.69312,83.7722965 L146.69312,190.454438 L113.566307,190.454438 L113.566307,83.7722965 Z M130.129714,30.7348881 C140.742522,30.7367941 149.344536,39.3413828 149.343265,49.9541908 C149.341995,60.5669988 140.737921,69.1695278 130.125113,69.1688927 C119.512305,69.1682576 110.909261,60.5646988 110.909261,49.9518907 C110.909261,44.8546269 112.934377,39.9661841 116.53901,36.3621979 C120.143644,32.7582117 125.03245,30.7339731 130.129714,30.7348881 M285.26672,33.0606667 L318.393534,33.0606667 L318.393534,127.144267 L355.937255,83.7239866 L396.552108,83.7239866 L353.073166,133.113995 L395.63767,190.499297 L354.001407,190.499297 L318.835224,137.765551 L318.400435,137.765551 L318.400435,190.492396 L285.273622,190.492396 L285.26672,33.0606667 Z M165.061248,83.7826487 L196.873341,83.7826487 L196.873341,98.3618972 L197.325384,98.3618972 C203.799886,87.2694637 215.857737,80.6449413 228.692335,81.1290529 C262.284994,81.1290529 268.468666,103.230849 268.468666,131.944204 L268.468666,190.447536 L235.341852,190.447536 L235.341852,138.579919 C235.341852,126.198772 235.114106,110.284099 218.088304,110.284099 C200.869263,110.284099 198.212216,123.766022 198.212216,137.679284 L198.212216,190.433733 L165.085403,190.433733 L165.061248,83.7826487 Z" id="Shape"></path>
                <path d="M466.315106,124.704615 C466.443176,119.273515 464.341068,114.026985 460.49833,110.186855 C456.655591,106.346724 451.407635,104.248178 445.976623,104.379935 C433.934218,103.630625 423.515605,112.676267 422.567009,124.704615 L466.315106,124.704615 Z M494.376278,171.979338 C483.228815,185.497326 466.596622,193.290182 449.075361,193.20535 C415.948548,193.20535 389.426393,171.092506 389.426393,136.851113 C389.426393,102.609721 415.945097,80.5079252 449.075361,80.5079252 C480.038579,80.5079252 499.455722,102.592467 499.455722,136.851113 L499.455722,147.237749 L422.567009,147.237749 C424.546355,159.41743 435.19638,168.277485 447.532894,168.007571 C457.113024,167.948206 466.011301,163.04123 471.173706,154.97079 L494.376278,171.979338 Z M568.504424,109.55945 C551.941017,109.55945 542.002973,120.618975 542.002973,136.733789 C542.002973,152.848603 551.937566,163.91848 568.504424,163.91848 C585.071281,163.91848 595.030029,152.876209 595.030029,136.733789 C595.030029,120.591369 585.088534,109.55945 568.504424,109.55945 M625.527401,190.433733 L595.030029,190.433733 L595.030029,176.285824 L594.577986,176.285824 C586.822477,186.7171 574.641941,192.929888 561.644413,193.083879 C529.815066,193.083879 508.848554,170.112504 508.848554,137.627523 C508.848554,107.792687 527.40302,80.3975024 557.903843,80.3975024 C571.613513,80.3975024 584.419097,84.1484239 591.931292,94.5454122 L592.366081,94.5454122 L592.366081,33.0503146 L625.523951,33.0503146 L625.527401,190.433733 Z M849.164447,190.495846 L816.037633,190.495846 L816.037633,138.617877 C816.037633,126.247082 815.816788,110.322057 798.80824,110.322057 C781.554691,110.322057 778.914898,123.800529 778.914898,137.717241 L778.914898,190.492396 L745.788085,190.492396 L745.788085,83.8102543 L777.589826,83.8102543 L777.589826,98.3895028 L778.034967,98.3895028 C784.519523,87.3022106 796.576753,80.6802144 809.412271,81.1566586 C842.987676,81.1566586 849.178249,103.241201 849.178249,131.97181 L849.164447,190.495846 Z M708.409998,69.2275555 C697.792929,69.2294607 689.18455,60.6241709 689.182644,50.0071023 C689.180738,39.3900337 697.786028,30.7816541 708.403097,30.7797479 C719.020165,30.7778424 727.628545,39.383132 727.630451,50.0002007 C727.631366,55.098697 725.606874,59.9887357 722.00234,63.5945642 C718.397806,67.2003926 713.508494,69.22664 708.409998,69.2275555 M724.973404,190.495846 L691.812084,190.495846 L691.812084,83.8102543 L724.973404,83.8102543 L724.973404,190.495846 Z M865.679543,0.0166706224 L675.165861,0.0166706224 C666.16179,-0.0849403089 658.777907,7.12751204 658.668017,16.1314849 L658.668017,207.43538 C658.774145,216.443691 666.157434,223.663285 675.165861,223.568761 L865.679543,223.568761 C874.705791,223.68065 882.117994,216.461473 882.24295,207.43538 L882.24295,16.1176821 C882.11424,7.09592183 874.701437,-0.116118261 865.679543,0.00141641904 M907.685032,194.660853 C899.294332,194.741573 892.546268,201.58772 892.586448,209.978711 C892.626989,218.369703 899.440599,225.150618 907.831688,225.150618 C916.222776,225.150618 923.036386,218.369703 923.076927,209.978711 C923.117107,201.58772 916.369043,194.741573 907.978343,194.660853 L907.685032,194.660853 M907.685032,223.405265 C900.303118,223.528115 894.219291,217.643506 894.096394,210.261592 C893.973497,202.879679 899.858067,196.795815 907.23998,196.67287 C914.621893,196.549926 920.705795,202.434458 920.828786,209.81637 L920.828786,210.040666 C920.982908,217.262131 915.254968,223.241865 908.033554,223.398363 L907.688483,223.398363" id="Shape"></path>
            </g>
        </g>
    </g>
</svg>