<?xml version="1.0" encoding="UTF-8"?>
<svg width="137px" height="23px" viewBox="0 0 137 23" version="1.1" xmlns="http://www.w3.org/2000/svg" xmlns:xlink="http://www.w3.org/1999/xlink">
    <!-- Generator: Sketch 53.2 (72643) - https://sketchapp.com -->
    <title>Group 18</title>
    <desc>Created with Sketch.</desc>
    <defs>
        <polygon id="path-1" points="0 0.160470695 17.7520751 0.160470695 17.7520751 20.8808595 0 20.8808595"></polygon>
        <polygon id="path-3" points="0.0601541184 0.173941778 20.3439867 0.173941778 20.3439867 21.8546827 0.0601541184 21.8546827"></polygon>
        <polygon id="path-5" points="0.173870123 0.160470695 17.8676362 0.160470695 17.8676362 20.8808595 0.173870123 20.8808595"></polygon>
    </defs>
    <g id="desktop" stroke="none" stroke-width="1" fill="none" fill-rule="evenodd">
        <g id="Homepage-Copy" transform="translate(-200.000000, -39.000000)">
            <g id="Group-4">
                <g id="Group-18" transform="translate(200.000000, 39.418457)">
                    <path d="M38.7474925,15.4918351 L34.2409495,10.9851129 L38.7474925,6.47874902 C39.6919014,5.53434011 39.6919014,4.00307923 38.7474925,3.05867032 C37.8029045,2.11426141 36.2718227,2.11426141 35.3274138,3.05867032 L30.8208708,7.56503424 L26.3143277,3.05867032 C25.3699188,2.11426141 23.8388371,2.11426141 22.894249,3.05867032 C21.9498401,4.00307923 21.9498401,5.53434011 22.894249,6.47874902 L27.4007921,10.9851129 L22.894249,15.4918351 C21.9498401,16.436244 21.9498401,17.9671466 22.894249,18.9119138 C23.3664535,19.3841183 23.9853709,19.6202205 24.6042884,19.6202205 C25.2232058,19.6202205 25.8421233,19.3841183 26.3143277,18.9119138 L30.8208708,14.4053708 L35.3274138,18.9119138 C35.7996183,19.3841183 36.4185357,19.6202205 37.0374532,19.6202205 C37.6563706,19.6202205 38.2752881,19.3841183 38.7474925,18.9119138 C39.6919014,17.9671466 39.6919014,16.436244 38.7474925,15.4918351" id="Fill-1" fill="#FF0000"></path>
                    <g id="Group-5" transform="translate(0.000000, 0.542605)">
                        <mask id="mask-2" fill="white">
                            <use xlink:href="#path-1"></use>
                        </mask>
                        <g id="Clip-4"></g>
                        <path d="M-1.79136743e-05,20.8808595 L17.7520751,20.8808595 L17.7520751,14.5075325 L17.4319577,14.5075325 C17.3737383,14.9541204 17.2377735,15.5166097 17.0244216,16.195538 C16.8107115,16.8748245 16.4810999,17.5295693 16.0350494,18.1597724 C15.5884615,18.7905129 15.011462,19.3336555 14.3035136,19.7893793 C13.5950278,20.2456406 12.7074052,20.4735026 11.6406459,20.4735026 L6.14043137,20.4735026 L6.14043137,9.96766998 L8.49769178,9.96766998 C9.19614594,9.96766998 9.76365114,10.0891247 10.2002074,10.3314967 C10.6365845,10.574227 10.9859011,10.8988228 11.2477991,11.3063589 C11.509697,11.713895 11.7133755,12.1794713 11.8590136,12.7032672 C12.0044727,13.2268839 12.1449159,13.7705639 12.2808807,14.3328741 L12.600998,14.3328741 L12.600998,5.28234846 L12.2808807,5.28234846 C12.0671705,6.15546094 11.848982,6.86842518 11.6261359,7.42124117 C11.4029315,7.9742363 11.1313602,8.41079254 10.8112428,8.7309099 C10.4911255,9.05102726 10.1077728,9.26921582 9.66172233,9.3856547 C9.21531357,9.50191445 8.6723501,9.56031302 8.03211538,9.56031302 L6.14043137,9.56031302 L6.14043137,0.567648512 L10.9713911,0.567648512 C11.7665791,0.567648512 12.4455073,0.664919764 13.0085341,0.85874572 C13.5710235,1.05292995 14.0561258,1.34904299 14.4634827,1.74654742 C14.8710188,2.14441013 15.2201563,2.62951243 15.5112535,3.20149605 C15.8021716,3.77401708 16.0737429,4.43843526 16.3261466,5.19510886 L16.6460848,5.19510886 L16.6460848,0.160470695 L-1.79136743e-05,0.160470695 L-1.79136743e-05,0.567648512 L3.23035498,0.567648512 L3.23035498,20.4735026 L-1.79136743e-05,20.4735026 L-1.79136743e-05,20.8808595 Z" id="Fill-3" fill="#000000" mask="url(#mask-2)"></path>
                    </g>
                    <polygon id="Fill-6" fill="#000000" points="42.6626156 21.4234647 52.0334378 21.4234647 52.0334378 21.0161078 48.8030649 21.0161078 48.8030649 1.11025371 52.0334378 1.11025371 52.0334378 0.70307589 42.6626156 0.70307589 42.6626156 1.11025371 45.8929885 1.11025371 45.8929885 21.0161078 42.6626156 21.0161078"></polygon>
                    <g id="Group-10" transform="translate(55.174117, 0.005195)">
                        <mask id="mask-4" fill="white">
                            <use xlink:href="#path-3"></use>
                        </mask>
                        <g id="Clip-9"></g>
                        <path d="M20.3439867,13.5897791 L11.4679402,13.5897791 L11.4679402,13.9971361 L15.2219298,13.9971361 L15.2219298,16.4419943 C15.2219298,17.29576 15.0714549,18.0377444 14.7710426,18.6681266 C14.4699137,19.298688 14.0820827,19.8176471 13.6070121,20.2250041 C13.1310457,20.632361 12.5927398,20.9381474 11.991736,21.1416468 C11.3901949,21.3453253 10.7886537,21.4472541 10.1874708,21.4472541 C9.19791939,21.4472541 8.39269973,21.3453253 7.77181178,21.1416468 C7.15092383,20.9381474 6.54974092,20.5741416 5.96772564,20.0503457 C5.4439298,19.5849485 5.01668867,19.02228 4.6872562,18.3626985 C4.35692804,17.703117 4.10004595,16.9851369 3.91589338,16.2089374 C3.73138253,15.4332753 3.60043358,14.6085298 3.52322564,13.7352381 C3.44548029,12.8623048 3.40678676,11.9891923 3.40678676,11.1160798 C3.40678676,9.83561037 3.48901052,8.56517259 3.6541746,7.30387078 C3.81862213,6.04310638 4.14895028,4.91293267 4.64336769,3.91352878 C5.13832252,2.91448316 5.82656588,2.10908436 6.70988916,1.49804893 C7.59231676,0.886834361 8.76154229,0.581227077 10.2164909,0.581227077 C11.43892,0.581227077 12.4428024,0.795116349 13.2284961,1.22164093 C14.014369,1.64852379 14.6445721,2.17249877 15.1201801,2.79302845 C15.5952508,3.41409553 15.9443883,4.06400364 16.1679509,4.7429319 C16.3906179,5.42221843 16.5410928,6.01372795 16.6188381,6.51799789 L16.9389555,6.51799789 L16.9389555,0.69766596 L16.5025784,0.69766596 C16.3470877,0.89185019 16.1869394,1.04250419 16.0223128,1.14873228 C15.8571487,1.25567692 15.5807407,1.30888053 15.1927305,1.30888053 C14.8437721,1.30888053 14.5279541,1.25066109 14.2472468,1.1342222 C13.9656438,1.01778332 13.6505423,0.886834361 13.3014048,0.741375326 C12.951909,0.59591629 12.5397153,0.464967331 12.0642864,0.348528448 C11.5886784,0.232268701 10.9828379,0.173870123 10.2455111,0.173870123 C8.80955093,0.173870123 7.52908149,0.445799699 6.40428188,0.988763168 C5.27858659,1.53208491 4.27989924,2.24021246 3.40678676,3.11332494 C3.15438308,3.36554948 2.83928155,3.71486613 2.46076561,4.16091662 C2.08260795,4.60732538 1.7137654,5.16032051 1.35513364,5.81972286 C0.995964465,6.47966262 0.690357181,7.25066717 0.438132647,8.13345304 C0.186087249,9.01623891 0.0601541184,10.0104478 0.0601541184,11.1160798 C0.0601541184,12.7653918 0.380271479,14.2497189 1.02032706,15.5688818 C1.66074092,16.888224 2.46542317,18.0329077 3.43562777,19.0029332 C4.42535828,19.9921263 5.45324491,20.7151222 6.52054163,21.1708461 C7.58748007,21.6263908 8.80955093,21.8547902 10.1874708,21.8547902 C11.0990976,21.8547902 11.8752972,21.7623556 12.5153527,21.5783822 C13.1557666,21.3940505 13.7132401,21.1853561 14.1890273,20.9526575 C14.664098,20.7199589 15.0809492,20.5116229 15.4402975,20.3267537 C15.7991084,20.1426012 16.1530826,20.0503457 16.5025784,20.0503457 C16.7934964,20.0503457 17.0066692,20.0893976 17.1428131,20.1669638 C17.2782405,20.24453 17.4527197,20.389989 17.6666089,20.6033409 L18.0159256,20.6033409 L18.0159256,13.9971361 L20.3439867,13.9971361 L20.3439867,13.5897791 Z" id="Fill-8" fill="#000000" mask="url(#mask-4)"></path>
                    </g>
                    <path d="M77.0309672,21.4234647 L94.7832393,21.4234647 L94.7832393,15.0501377 L94.4631219,15.0501377 C94.4047233,15.4967256 94.2689377,16.0592149 94.0554067,16.7381432 C93.8418757,17.4174297 93.5120849,18.0721745 93.0662136,18.7023776 C92.6196257,19.3331181 92.0424471,19.8762607 91.3346778,20.3319845 C90.626192,20.7882458 89.7385694,21.0161078 88.671631,21.0161078 L83.1714164,21.0161078 L83.1714164,10.5102752 L85.528856,10.5102752 C86.227131,10.5102752 86.7946362,10.6317299 87.2311925,10.8741019 C87.6675696,11.1168322 88.0168862,11.441428 88.2787841,11.8489641 C88.540682,12.2565001 88.7445397,12.7220765 88.8899987,13.2458724 C89.0356369,13.7694891 89.1759009,14.3131691 89.3120449,14.8754793 L89.6321622,14.8754793 L89.6321622,5.82495365 L89.3120449,5.82495365 C89.0981556,6.69806614 88.8801462,7.41103038 88.6571209,7.96384637 C88.4339165,8.51684149 88.1625244,8.95339774 87.842407,9.2735151 C87.5221105,9.59363246 87.138937,9.81182101 86.6928865,9.92825989 C86.2462986,10.0445196 85.7033352,10.1029182 85.0631004,10.1029182 L83.1714164,10.1029182 L83.1714164,1.11025371 L88.0023761,1.11025371 C88.7977433,1.11025371 89.4766715,1.20752496 90.0395192,1.40135092 C90.6020085,1.59553514 91.08729,1.89164818 91.4944678,2.28915261 C91.902183,2.68701532 92.2513205,3.17211762 92.5424178,3.74410124 C92.8331567,4.31662227 93.104728,4.98104046 93.3571317,5.73771406 L93.6770699,5.73771406 L93.6770699,0.70307589 L77.0309672,0.70307589 L77.0309672,1.11025371 L80.26134,1.11025371 L80.26134,21.0161078 L77.0309672,21.0161078 L77.0309672,21.4234647 Z" id="Fill-11" fill="#000000"></path>
                    <polygon id="Fill-13" fill="#000000" points="97.256634 21.4234647 104.153757 21.4234647 104.153757 21.0161078 100.923384 21.0161078 100.923384 2.30366269 100.981603 2.30366269 113.233482 21.8306425 113.815497 21.8306425 113.815497 1.11025371 117.04587 1.11025371 117.04587 0.70307589 110.148747 0.70307589 110.148747 1.11025371 113.378941 1.11025371 113.378941 16.5634849 113.320721 16.5634849 103.484502 0.70307589 97.256634 0.70307589 97.256634 1.11025371 100.487007 1.11025371 100.487007 21.0161078 97.256634 21.0161078"></polygon>
                    <g id="Group-17" transform="translate(118.588524, 0.542605)">
                        <mask id="mask-6" fill="white">
                            <use xlink:href="#path-5"></use>
                        </mask>
                        <g id="Clip-16"></g>
                        <path d="M4.33539581,20.8808595 L13.706218,20.8808595 L13.706218,20.4735026 L10.475666,20.4735026 L10.475666,0.567648512 L12.1634923,0.567648512 C12.5515025,0.567648512 12.9882379,0.602042767 13.4733402,0.669756456 C13.9580842,0.738007555 14.4482024,0.926996819 14.9429781,1.23726166 C15.4377537,1.54770563 15.9128244,2.03746549 16.3689065,2.7068995 C16.8246304,3.37615437 17.2174773,4.30282875 17.5476263,5.48602693 L17.8677437,5.48602693 L17.8677437,0.160470695 L0.173870123,0.160470695 L0.173870123,5.48602693 L0.493987483,5.48602693 C0.823599091,4.30282875 1.21644597,3.37615437 1.67252812,2.7068995 C2.12825199,2.03746549 2.60386005,1.54770563 3.09863573,1.23726166 C3.59305314,0.926996819 4.08299213,0.738007555 4.56827357,0.669756456 C5.0530176,0.602042767 5.48921557,0.567648512 5.87758403,0.567648512 L7.56541042,0.567648512 L7.56541042,20.4735026 L4.33539581,20.4735026 L4.33539581,20.8808595 Z" id="Fill-15" fill="#000000" mask="url(#mask-6)"></path>
                    </g>
                </g>
            </g>
        </g>
    </g>
</svg>