<?xml version="1.0" encoding="UTF-8"?>
<svg width="17px" height="17px" viewBox="0 0 17 17" version="1.1" xmlns="http://www.w3.org/2000/svg" xmlns:xlink="http://www.w3.org/1999/xlink">
    <title>small-x</title>
    <g id="2023" stroke="none" stroke-width="1" fill="none" fill-rule="evenodd">
        <g id="About" transform="translate(-673.000000, -4722.000000)" fill="#FF0000">
            <g id="small-x" transform="translate(673.231280, 4722.493672)">
                <path d="M2.24052856,16 C1.66709122,16 1.09373969,15.7811963 0.656218074,15.3438463 C-0.218739358,14.4687172 -0.218739358,13.0502685 0.656218074,12.1753111 L12.1750751,0.656282428 C13.0502042,-0.218760809 14.4686529,-0.218760809 15.3436961,0.656282428 C16.2185677,1.53123986 16.2185677,2.94994597 15.3436961,3.8249034 L3.82483905,15.3438463 C3.38731743,15.7811963 2.8139659,16 2.24052856,16" id="Fill-4"></path>
                <path d="M13.8310703,16 C13.257633,16 12.6842814,15.7811963 12.2467598,15.3438463 L0.727902737,3.8249034 C-0.147054696,2.94994597 -0.147054696,1.53123986 0.727902737,0.656282428 C1.60294597,-0.218760809 3.02139467,-0.218760809 3.89643791,0.656282428 L15.4153808,12.1753111 C16.2903382,13.0502685 16.2903382,14.4687172 15.4153808,15.3438463 C14.9778592,15.7811963 14.4045076,16 13.8310703,16" id="Fill-6"></path>
            </g>
        </g>
    </g>
</svg>